# xmcd
#
# Track frame offsets: 
#        150
#        31861
#        55360
#        82409
#        103691
#        121790
#        150231
#        179429
#        200947
#        226712
#        255320
#
# Disc length: 3707 seconds
#
# Revision: 0
# Processed by: cddbd v1.5.2PL0 Copyright (c) Steve Scherf et al.
# Submitted via: ExactAudioCopy v0.95b4
#
DISCID=890e790b
DTITLE=Smith, Byther - Addressing The Nation With The Blues
DYEAR=1989
DGENRE=Blues
TTITLE0=What Have I Done
TTITLE1=I'm Movin' On
TTITLE2=I Was Coming Home
TTITLE3=What Is This
TTITLE4=Looking For A Woman
TTITLE5=Play The Blues On The Moon
TTITLE6=I Wish My Mother Was Here
TTITLE7=Hello Mrs Brown
TTITLE8=Addressing The Nation With The Blues
TTITLE9=You Should Be Proud Of Your Daughter
TTITLE10=Put Your Arms Around Me
EXTD=
EXTT0=
EXTT1=
EXTT2=
EXTT3=
EXTT4=
EXTT5=
EXTT6=
EXTT7=
EXTT8=
EXTT9=
EXTT10=
PLAYORDER=
